<svg xmlns="http://www.w3.org/2000/svg" data-name="Layer 1" viewBox="0 0 100 125" x="0px" y="0px"><title>Artboard 19</title><path d="M9.78,89.94H73.57l-4.12-9.71H10.71V30.84H82v30l9.71,4.12V16.36a8.79,8.79,0,0,0-8.78-8.78H9.78A8.79,8.79,0,0,0,1,16.36v64.8A8.79,8.79,0,0,0,9.78,89.94ZM35.91,16.29A3.67,3.67,0,1,1,32.24,20,3.67,3.67,0,0,1,35.91,16.29Zm-10.9,0A3.67,3.67,0,1,1,21.34,20,3.67,3.67,0,0,1,25,16.29Zm-10.9,0A3.67,3.67,0,1,1,10.44,20,3.67,3.67,0,0,1,14.11,16.29ZM97.92,86.15a3.67,3.67,0,1,1-5.2,5.2L88.08,86.7l-2.77,2.77a3.19,3.19,0,0,1-5.2-1L72.23,69.88a3.16,3.16,0,0,1,.27-3,3.2,3.2,0,0,1,4-1.2L95,73.54a3.19,3.19,0,0,1,1,5.2L93.28,81.5ZM54.1,40.53a3.46,3.46,0,0,1,.29,2.74L46.34,71.15a3.58,3.58,0,0,1-1.65,2.09,3.42,3.42,0,0,1-2.71.3l-1.33-.37a3.54,3.54,0,0,1-2.08-1.65,3.45,3.45,0,0,1-.29-2.74l8.05-27.88A3.58,3.58,0,0,1,48,38.81a3.43,3.43,0,0,1,2.7-.3l1.36.38A3.53,3.53,0,0,1,54.1,40.53ZM35,49.52,28.45,56,35,62.54a3.5,3.5,0,0,1,0,5L33.88,68.6a3.5,3.5,0,0,1-5,0L18.82,58.52a3.5,3.5,0,0,1,0-5L28.9,43.46a3.58,3.58,0,0,1,5,0L35,44.54a3.5,3.5,0,0,1,0,5ZM74.9,56a3.5,3.5,0,0,1-1,2.49L63.77,68.6a3.49,3.49,0,0,1-5,0l-1.08-1.08a3.5,3.5,0,0,1,0-5L64.22,56l-6.51-6.51a3.5,3.5,0,0,1,0-5l1.08-1.08a3.58,3.58,0,0,1,5,0L73.85,53.54A3.5,3.5,0,0,1,74.9,56Z"/><text x="0" y="115" fill="#000000" font-size="5px" font-weight="bold" font-family="'Helvetica Neue', Helvetica, Arial-Unicode, Arial, Sans-serif">Created by Gregor Cresnar</text><text x="0" y="120" fill="#000000" font-size="5px" font-weight="bold" font-family="'Helvetica Neue', Helvetica, Arial-Unicode, Arial, Sans-serif">from the Noun Project</text></svg>